<svg width="435" height="101" viewBox="0 0 435 101" fill="none" xmlns="http://www.w3.org/2000/svg">
<g clip-path="url(#clip0_96:1000)">
<path d="M144.788 75.966C141.391 74.4904 138.432 72.1649 136.194 69.2136C134.136 66.4482 132.966 63.1232 132.839 59.6783H145.116C145.222 60.9012 145.592 62.0865 146.199 63.1532C146.807 64.2198 147.638 65.1424 148.635 65.8578C151.003 67.586 153.891 68.4524 156.82 68.3132C159.561 68.4895 162.29 67.8179 164.636 66.3898C165.493 65.867 166.202 65.1339 166.697 64.2602C167.191 63.3864 167.454 62.4009 167.46 61.3971C167.482 60.3687 167.198 59.357 166.644 58.49C166.091 57.6231 165.292 56.94 164.35 56.5271C161.166 55.0923 157.867 53.9286 154.487 53.0486C150.872 52.1097 147.319 50.948 143.847 49.5701C141.096 48.4647 138.663 46.6927 136.767 44.4137C134.665 41.85 133.587 38.5993 133.739 35.2877C133.738 32.233 134.697 29.2553 136.481 26.7755C138.515 24.0946 141.228 22.004 144.338 20.7188C148.06 19.1842 152.058 18.432 156.083 18.5089C161.821 18.2295 167.469 20.0153 172.003 23.5425C174.016 25.202 175.641 27.2817 176.765 29.6358C177.889 31.99 178.485 34.5616 178.51 37.1702H166.478C166.427 35.9686 166.119 34.7918 165.576 33.7189C165.032 32.646 164.265 31.7018 163.327 30.9497C161.117 29.2914 158.392 28.4654 155.633 28.6171C153.09 28.4511 150.559 29.0803 148.39 30.4177C147.6 30.9298 146.953 31.634 146.509 32.4642C146.065 33.2944 145.839 34.2236 145.852 35.1649C145.811 35.9288 145.94 36.6923 146.23 37.4001C146.52 38.1079 146.964 38.7423 147.53 39.2573C148.717 40.3502 150.108 41.1985 151.623 41.7536C153.219 42.3266 155.715 43.1041 158.784 44.0045C162.319 44.8828 165.78 46.032 169.138 47.442C171.829 48.5743 174.223 50.3107 176.136 52.5166C178.198 55.0409 179.287 58.2206 179.205 61.479C179.239 64.6398 178.28 67.7315 176.463 70.3184C174.496 73.0243 171.819 75.1344 168.729 76.4161C165.01 77.9621 161.01 78.7148 156.984 78.626C152.775 78.6242 148.616 77.717 144.788 75.966Z" fill="black"/>
<path d="M190.296 32.7097C192.567 28.3302 196.047 24.6942 200.322 22.2332C204.818 19.7124 209.902 18.4275 215.055 18.5092C221.258 18.2536 227.376 20.0201 232.489 23.5428C237.198 27.0252 240.507 32.0762 241.819 37.7842H228.846C227.936 35.0626 226.171 32.7083 223.813 31.0727C221.222 29.3587 218.159 28.5 215.055 28.6173C212.833 28.5305 210.62 28.9581 208.59 29.8667C206.56 30.7753 204.767 32.1404 203.351 33.8556C200.19 38.029 198.636 43.2 198.972 48.4245C198.645 53.6731 200.198 58.8667 203.351 63.0752C204.763 64.7953 206.555 66.1637 208.586 67.0728C210.617 67.9818 212.832 68.4066 215.055 68.3134C218.048 68.5799 221.042 67.8219 223.548 66.1639C226.053 64.5059 227.922 62.046 228.846 59.1874H241.819C240.33 64.8038 236.983 69.751 232.325 73.2243C227.301 76.8173 221.228 78.645 215.055 78.4216C209.899 78.5292 204.809 77.2425 200.322 74.6976C196.062 72.1988 192.589 68.5549 190.296 64.1801C187.9 59.2809 186.654 53.8989 186.654 48.4449C186.654 42.9909 187.9 37.609 190.296 32.7097V32.7097Z" fill="black"/>
<path d="M251.886 32.7504C254.14 28.4149 257.551 24.7888 261.741 22.2748C265.931 19.7608 270.736 18.4573 275.622 18.5089C279.763 18.4019 283.867 19.3154 287.572 21.1689C290.751 22.7726 293.544 25.0488 295.756 27.8395V19.6548H308.033V77.6438H295.756V69.0089C293.588 71.8843 290.788 74.2226 287.572 75.8432C283.536 77.8177 279.07 78.751 274.581 78.558C270.092 78.365 265.723 77.0519 261.871 74.7382C257.682 72.126 254.285 68.4184 252.05 64.0162C249.557 59.1882 248.305 53.8157 248.407 48.3833C248.212 42.9607 249.41 37.5786 251.886 32.7504V32.7504ZM293.26 37.9886C291.742 35.2008 289.493 32.8802 286.753 31.2771C284.152 29.7378 281.182 28.9317 278.159 28.9444C275.135 28.9366 272.16 29.7121 269.524 31.1953C266.777 32.7704 264.524 35.0804 263.017 37.8659C261.311 41.0443 260.464 44.6134 260.562 48.2196C260.477 51.8767 261.322 55.4955 263.017 58.737C264.531 61.5943 266.795 63.9852 269.565 65.6531C272.167 67.1955 275.134 68.015 278.159 68.0267C281.182 68.0394 284.152 67.2334 286.753 65.6941C289.506 64.072 291.758 61.7211 293.26 58.9007C294.956 55.674 295.801 52.0683 295.715 48.4242C295.806 44.7926 294.961 41.1987 293.26 37.9886Z" fill="black"/>
<path d="M344.456 66.7583L360.826 19.4912H373.512L351.413 77.4803H337.09L315.073 19.4912H327.923L344.456 66.7583Z" fill="black"/>
<path d="M433.874 52.9668H389.554C389.627 55.0723 390.122 57.1418 391.007 59.0534C391.893 60.9651 393.152 62.6803 394.71 64.0981C397.831 66.8542 401.885 68.3176 406.046 68.1905C408.891 68.375 411.725 67.6912 414.173 66.2297C416.622 64.7681 418.568 62.5978 419.756 60.0057H432.688C430.986 65.2757 427.663 69.8734 423.193 73.1422C418.269 76.6994 412.325 78.566 406.251 78.4624C401.045 78.5477 395.908 77.2634 391.354 74.7383C387.003 72.2625 383.431 68.6196 381.042 64.2209C378.476 59.373 377.193 53.9489 377.317 48.4652C377.202 43.0051 378.454 37.6029 380.96 32.7504C383.257 28.3359 386.801 24.693 391.15 22.274C395.777 19.7479 400.98 18.4648 406.251 18.5499C411.362 18.4734 416.408 19.7136 420.902 22.1512C425.138 24.4781 428.618 27.9721 430.928 32.2184C433.371 36.7967 434.597 41.9262 434.488 47.1147C434.44 49.0786 434.235 51.0356 433.874 52.9668V52.9668ZM421.597 43.2678C421.63 41.2553 421.223 39.26 420.402 37.4218C419.582 35.5837 418.37 33.9474 416.85 32.6277C413.669 29.8917 409.586 28.4335 405.391 28.5353C401.452 28.491 397.645 29.9552 394.751 32.6277C391.712 35.3985 389.828 39.2117 389.472 43.3088L421.597 43.2678Z" fill="black"/>
<path d="M50.5 101C78.3904 101 101 78.3904 101 50.5C101 22.6096 78.3904 0 50.5 0C22.6096 0 0 22.6096 0 50.5C0 78.3904 22.6096 101 50.5 101Z" fill="#00BCD4"/>
<path d="M78.2464 51.1955C78.248 56.6196 76.6897 61.9297 73.7571 66.4926C70.8246 71.0556 66.6415 74.6789 61.7069 76.9305C56.7723 79.1822 51.2942 79.9672 45.9259 79.1919C40.5575 78.4165 35.5254 76.1136 31.4296 72.5578C31.1812 72.3543 30.9811 72.0983 30.8437 71.8081C30.7063 71.518 30.635 71.2009 30.635 70.8799C30.635 70.5588 30.7063 70.2418 30.8437 69.9516C30.9811 69.6615 31.1812 69.4055 31.4296 69.2021C33.5438 67.5368 35.2665 65.4274 36.4757 63.0231C37.685 60.6187 38.3512 57.9781 38.4275 55.2879V54.6741C38.4296 52.0672 37.8842 49.489 36.8268 47.1062C35.7694 44.7235 34.2234 42.5893 32.2889 40.8418C30.3269 39.0867 28.0099 37.7747 25.4956 36.995L24.0224 36.5858H23.6541L17.9246 35.1534C17.6933 35.1064 17.4855 34.9809 17.3361 34.7982C17.1868 34.6155 17.1052 34.3868 17.1052 34.1508C17.1052 33.9148 17.1868 33.686 17.3361 33.5033C17.4855 33.3206 17.6933 33.1951 17.9246 33.1481C20.8036 32.6523 23.72 32.4059 26.6414 32.4115H28.8104C30.6469 32.4854 32.4777 32.663 34.2942 32.9435C35.8323 29.9836 38.1438 27.4958 40.983 25.7448C43.8221 23.9937 47.0827 23.0448 50.4181 22.999V22.999C51.679 23.0252 52.9368 23.1345 54.1832 23.3264C60.8647 24.3251 66.9668 27.6861 71.3819 32.7995C75.797 37.913 78.2325 44.4398 78.2464 51.1955Z" fill="#060709"/>
<path d="M50.4999 39.7373C53.0312 39.7373 55.0833 37.6852 55.0833 35.1538C55.0833 32.6224 53.0312 30.5703 50.4999 30.5703C47.9685 30.5703 45.9164 32.6224 45.9164 35.1538C45.9164 37.6852 47.9685 39.7373 50.4999 39.7373Z" fill="white"/>
</g>
<defs>
<clipPath id="clip0_96:1000">
<rect width="434.284" height="101" fill="white"/>
</clipPath>
</defs>
</svg>
